<svg width="191" height="140" viewBox="0 0 191 140" fill="none" xmlns="http://www.w3.org/2000/svg">
<path d="M23.0859 91.6826H33.2578L56.1445 139H46.0635L42.2793 131.038H14.6396L10.9766 139H0.865234L23.0859 91.6826ZM38.4951 123.137L28.2627 101.643L18.3027 123.137H38.4951ZM62.29 91.6826H71.9473V139H62.29V91.6826ZM84.208 91.6826H101.555C106.62 91.6826 111.02 92.2275 114.754 93.3174C118.488 94.4072 121.576 95.9714 124.018 98.0098C126.48 100.028 128.306 102.49 129.497 105.396C130.708 108.283 131.313 111.532 131.313 115.145C131.313 118.576 130.718 121.754 129.527 124.681C128.337 127.587 126.52 130.11 124.078 132.249C121.636 134.368 118.548 136.033 114.814 137.244C111.081 138.435 106.681 139.03 101.615 139.03L84.208 139V91.6826ZM103.916 130.705C106.782 130.705 109.295 130.342 111.454 129.615C113.614 128.868 115.41 127.819 116.843 126.467C118.296 125.115 119.386 123.48 120.112 121.562C120.839 119.645 121.202 117.506 121.202 115.145C121.202 112.824 120.839 110.735 120.112 108.878C119.386 107.001 118.296 105.417 116.843 104.125C115.41 102.813 113.614 101.804 111.454 101.098C109.295 100.391 106.782 100.038 103.916 100.038H93.8047V130.705H103.916ZM157.076 91.6826H167.248L190.135 139H180.054L176.27 131.038H148.63L144.967 139H134.855L157.076 91.6826ZM172.485 123.137L162.253 101.643L152.293 123.137H172.485Z" fill="white"/>
<circle cx="95.5" cy="40.5" r="40.5" fill="white"/>
<path d="M121.05 14.9668C115.143 9.05525 107.368 5.37506 99.0513 4.55341C90.7343 3.73175 82.3898 5.81948 75.4396 10.4608C68.4895 15.1021 63.3638 22.0099 60.936 30.0069C58.5083 38.0039 58.9286 46.5954 62.1255 54.3172C65.3224 62.039 71.0979 68.4133 78.468 72.354C85.838 76.2947 94.3465 77.5578 102.544 75.9282C110.741 74.2985 118.119 69.8769 123.421 63.4168C128.723 56.9568 131.621 48.858 131.622 40.5006C131.621 30.9247 127.819 21.7408 121.05 14.9668ZM83.4951 64.5638C83.4951 63.5001 83.9176 62.48 84.6698 61.7279C85.4219 60.9758 86.442 60.5533 87.5056 60.5533C88.5693 60.5533 89.5894 60.9758 90.3415 61.7279C91.0936 62.48 91.5162 63.5001 91.5162 64.5638V68.2769C88.7366 67.8792 86.0327 67.0657 83.4951 65.8639V64.5638ZM99.5373 64.5638C99.5373 63.5001 99.9598 62.48 100.712 61.7279C101.464 60.9758 102.484 60.5533 103.548 60.5533C104.611 60.5533 105.632 60.9758 106.384 61.7279C107.136 62.48 107.558 63.5001 107.558 64.5638V65.8639C105.021 67.0657 102.317 67.8792 99.5373 68.2769V64.5638ZM88.2208 47.1848H102.833L105.363 52.6726C103.608 52.4058 101.815 52.5311 100.115 53.0397C98.414 53.5482 96.8471 54.4273 95.5267 55.6136C94.206 54.4278 92.639 53.5494 90.9383 53.0415C89.2376 52.5335 87.4455 52.4087 85.6909 52.6759L88.2208 47.1848ZM91.9239 39.1637L95.5267 31.3499L99.1295 39.1637H91.9239ZM115.579 60.1489V56.5427C115.577 55.9659 115.452 55.3963 115.212 54.8717L99.1696 20.1137C98.8489 19.4173 98.3354 18.8273 97.6897 18.4138C97.0441 18.0003 96.2934 17.7805 95.5267 17.7805C94.76 17.7805 94.0094 18.0003 93.3637 18.4138C92.7181 18.8273 92.2045 19.4173 91.8838 20.1137L75.8416 54.8717C75.6018 55.3963 75.4765 55.9659 75.474 56.5427V60.1422C71.6052 56.1936 68.9882 51.1906 67.9512 45.7607C66.9143 40.3307 67.5035 34.7155 69.6451 29.6191C71.7866 24.5227 75.3851 20.172 79.9894 17.1125C84.5936 14.053 89.9986 12.4209 95.5267 12.4209C101.055 12.4209 106.46 14.053 111.064 17.1125C115.668 20.172 119.267 24.5227 121.408 29.6191C123.55 34.7155 124.139 40.3307 123.102 45.7607C122.065 51.1906 119.448 56.1936 115.579 60.1422V60.1489Z" fill="#17C653"/>
</svg>
