<svg width="322" height="419" viewBox="0 0 322 419" fill="none" xmlns="http://www.w3.org/2000/svg">
<path d="M201.051 251.817C199.278 238.963 202.837 234.212 207.034 233.658C211.231 233.104 214.472 236.969 216.245 249.822C218.018 262.676 211.868 274.076 211.868 274.076C211.868 274.076 202.837 264.657 201.051 251.817Z" fill="#2F8E6E"/>
<path d="M216.702 204.433C214.929 191.579 218.489 186.828 222.686 186.274C226.883 185.72 230.124 189.584 231.897 202.438C233.67 215.292 227.52 226.691 227.52 226.691C227.52 226.691 218.489 217.286 216.702 204.433Z" fill="#0C6859"/>
<path d="M245.443 170.331C244.252 161.758 246.634 158.572 249.446 158.212C252.244 157.852 254.405 160.428 255.596 169.002C256.787 177.576 252.673 185.207 252.673 185.207C252.673 185.207 246.62 178.919 245.443 170.331Z" fill="#2F8E6E"/>
<path d="M181.825 383.956C185.814 359.606 191.119 330.546 197.615 306.944C199.665 298.163 203.641 285.503 206.342 276.721C207.533 272.441 209.929 266.084 211.411 261.831C214.237 253.271 219.362 240.944 222.824 232.523L229.459 218.256C237.423 201.898 246.897 185.72 257.951 171.246C262.771 165.317 268.076 158.766 273.99 153.835C274.406 153.489 275.043 153.544 275.389 153.96C275.735 154.375 275.68 154.971 275.292 155.331C268.02 162.021 261.441 171.135 255.928 179.39C244.723 196.316 235.637 215.832 228.046 234.683C224.944 243.119 220.373 255.46 217.921 264.006C216.619 268.258 214.514 274.574 213.489 278.868C211.162 287.636 207.768 300.185 206.065 308.98C200.593 332.444 196.438 361.434 193.474 385.479C192.477 393.402 180.8 392.072 181.825 383.956Z" fill="#005B54"/>
<path d="M295.778 137.615C312.26 131.604 319.601 134.651 321.554 139.721C323.507 144.79 319.352 149.984 302.869 155.996C286.387 162.007 269.475 157.699 269.475 157.699C269.475 157.699 279.295 143.641 295.778 137.615Z" fill="#005B54"/>
<path d="M276.428 155.594C290.099 150.483 296.817 154.5 299.102 160.262C301.374 166.024 298.34 171.343 284.669 176.454C270.998 181.565 255.804 175.276 255.804 175.276C255.804 175.276 262.771 160.705 276.428 155.594Z" fill="#0C6859"/>
<path d="M256.565 191.025C270.347 186.828 276.719 191.191 278.589 196.995C280.458 202.798 277.12 207.854 263.352 212.051C249.571 216.248 235.013 209.142 235.013 209.142C235.013 209.142 242.784 195.222 256.565 191.025Z" fill="#2F8E6E"/>
<path d="M241.745 226.123C254.46 222.245 259.876 224.863 261.15 228.797C262.411 232.73 259.045 236.484 246.329 240.362C233.614 244.241 221.01 240.265 221.01 240.265C221.01 240.265 229.03 230.002 241.745 226.123Z" fill="#005B54"/>
<path d="M242.243 47.3899C194.444 117.518 177.144 220.237 174.761 303.911C173.889 333.815 174.734 363.775 177.005 393.61C177.254 396.851 174.831 399.677 171.589 399.912C168.321 400.162 165.467 397.682 165.273 394.4C159.026 283.398 169.83 161.453 224.791 62.8061C228.711 56.1161 232.645 49.7446 237.437 43.5117C238.49 42.1681 240.415 41.9326 241.759 42.9715C243.116 44.0657 243.338 46.0602 242.243 47.3899Z" fill="#005B54"/>
<path d="M233.06 21.8763C243.629 1.33526 253.698 -2.19675 260.388 1.05824C267.078 4.31323 267.84 13.1086 257.272 33.6497C246.704 54.1908 226.038 64.9668 226.038 64.9668C226.038 64.9668 222.492 42.4312 233.06 21.8763Z" fill="#0C6859"/>
<path d="M228.891 89.0401C242.562 83.929 249.28 87.9597 251.565 93.7079C253.837 99.4699 250.803 104.789 237.132 109.9C223.461 115.011 208.267 108.722 208.267 108.722C208.267 108.722 215.22 94.1511 228.891 89.0401Z" fill="#005B54"/>
<path d="M176.576 102.074C172.379 85.5356 177.088 78.6516 183.252 77.1834C189.416 75.7014 194.679 80.1891 198.876 96.7134C203.073 113.251 195.33 129.333 195.33 129.333C195.33 129.333 180.773 118.612 176.576 102.074Z" fill="#005B54"/>
<path d="M164.692 158.392C157.198 147.63 158.694 141.48 162.711 138.834C166.728 136.189 171.714 138.045 179.221 148.807C186.715 159.569 185.537 173.088 185.537 173.088C185.537 173.088 172.199 169.154 164.692 158.392Z" fill="#0C6859"/>
<path d="M154.691 212.175C147.419 201.746 148.846 195.817 152.683 193.283C156.52 190.748 161.34 192.562 168.611 203.006C175.883 213.436 174.817 226.483 174.817 226.483C174.817 226.483 161.963 222.605 154.691 212.175Z" fill="#005B54"/>
<path d="M212.658 133.599C226.329 128.488 233.046 132.504 235.332 138.266C237.603 144.028 234.57 149.347 220.899 154.458C207.228 159.569 192.033 153.281 192.033 153.281C192.033 153.281 198.987 138.71 212.658 133.599Z" fill="#2F8E6E"/>
<path d="M191.784 186.801C200.69 180.235 206.494 181.8 209.417 185.554C212.339 189.308 211.273 193.837 202.366 200.388C193.46 206.954 180.953 205.472 180.953 205.472C180.953 205.472 182.878 193.352 191.784 186.801Z" fill="#2F8E6E"/>
<path d="M51.8888 204.641C81.9871 204.364 110.977 220.403 128.222 244.809C144.15 267.039 151.464 294.243 154.331 321.114C156.741 343.012 156.187 365.174 154.373 387.017C154.096 390.258 151.256 392.654 148.015 392.377C144.705 392.1 142.267 389.095 142.668 385.798C146.464 351.863 147.309 316.972 137.973 283.91C129.552 253.465 109.731 225.957 79.2723 214.918C70.6293 211.677 61.0721 209.558 51.9165 209.475C48.8693 209.447 48.7031 204.779 51.8888 204.641Z" fill="#005B54"/>
<path d="M25.0594 220.68C7.71793 223.658 1.08328 219.364 0.113709 214.018C-0.855863 208.685 4.21367 204.322 21.5551 201.344C38.8966 198.366 54.7006 205.61 54.7006 205.61C54.7006 205.61 42.4009 217.702 25.0594 220.68Z" fill="#005B54"/>
<path d="M72.2084 237.814C58.4266 245.834 51.3349 244.269 48.7309 240.03C46.1269 235.792 48.9941 230.473 62.762 222.453C76.5299 214.433 92.4308 215.611 92.4308 215.611C92.4308 215.611 85.9763 229.794 72.2084 237.814Z" fill="#2F8E6E"/>
<path d="M102.21 267.026C86.2256 265.599 81.447 260.266 81.9041 255.335C82.375 250.418 87.9016 247.773 103.886 249.199C119.87 250.626 131.989 260.696 131.989 260.696C131.989 260.696 118.194 268.452 102.21 267.026Z" fill="#0C6859"/>
<path d="M54.5344 189.723C47.4704 175.706 49.6726 168.947 54.2296 166.772C58.7866 164.597 63.9946 167.825 71.0587 181.842C78.1227 195.859 75.5879 211.178 75.5879 211.178C75.5879 211.178 61.5984 203.754 54.5344 189.723Z" fill="#0C6859"/>
<path d="M95.3256 201.801C92.3476 186.454 96.3091 180.512 101.295 179.598C106.282 178.684 110.423 183.13 113.401 198.477C116.379 213.824 109.758 227.924 109.758 227.924C109.758 227.924 98.3036 217.148 95.3256 201.801Z" fill="#005B54"/>
<path d="M192.643 418.251H152.281C141.81 418.251 133.07 410.439 132.169 400.272L125.701 327.111H219.223L212.755 400.272C211.854 410.439 203.114 418.251 192.643 418.251Z" fill="#FD8972"/>
<path d="M205.621 327.111L199.845 392.419C198.945 402.586 190.205 410.398 179.734 410.398H139.372C138.195 410.398 137.045 410.287 135.909 410.107C139.594 415.065 145.577 418.251 152.267 418.251H192.629C203.1 418.251 211.84 410.439 212.741 400.272L219.209 327.111H205.621Z" fill="#FF6F54"/>
<path d="M192.643 418.68H152.281C141.491 418.68 132.668 410.785 131.74 400.3L125.23 326.668H219.708L213.198 400.3C212.256 410.785 203.419 418.68 192.643 418.68ZM126.172 327.541L132.599 400.231C133.485 410.259 141.948 417.822 152.281 417.822H192.643C202.976 417.822 211.439 410.259 212.325 400.231L218.752 327.541H126.172Z" fill="#FF6F54"/>
<path d="M227.312 331.045H119.232C116.13 331.045 113.609 328.524 113.609 325.422V316.239C113.609 313.136 116.13 310.615 119.232 310.615H227.312C230.415 310.615 232.936 313.136 232.936 316.239V325.422C232.936 328.524 230.415 331.045 227.312 331.045Z" fill="#FF6F54"/>
<path d="M119.302 310.615C116.158 310.615 113.595 313.094 113.595 316.155V318.358H220.927C224.071 318.358 226.633 315.878 226.633 312.817V310.615H119.302Z" fill="#FD8972"/>
<path d="M227.229 331.475H119.302C115.922 331.475 113.166 328.787 113.166 325.491V316.155C113.166 315.92 113.36 315.726 113.595 315.726C113.831 315.726 114.024 315.92 114.024 316.155V325.491C114.024 328.317 116.393 330.602 119.288 330.602H227.215C230.124 330.602 232.478 328.303 232.478 325.491V316.155C232.478 313.33 230.11 311.044 227.215 311.044H186.493C186.258 311.044 186.064 310.85 186.064 310.615C186.064 310.379 186.258 310.186 186.493 310.186H227.215C230.595 310.186 233.351 312.873 233.351 316.169V325.505C233.365 328.787 230.609 331.475 227.229 331.475Z" fill="#FF6F54"/>
</svg>
