<svg width="356" height="356" viewBox="0 0 356 356" fill="none" xmlns="http://www.w3.org/2000/svg">
<path d="M214.897 214.406C220.446 209.255 224.289 200.286 224.289 200.286C225.357 199.52 226.224 198.506 226.811 197.331C228.144 194.88 229.237 192.208 228.011 191.14C226.419 189.762 225.287 190.48 225.287 190.48C225.287 190.48 226.282 188.101 224.433 186.667C222.585 185.232 221.248 186.453 221.248 186.453C221.473 185.848 221.492 185.186 221.304 184.57C221.113 183.952 220.727 183.415 220.204 183.039C218.069 181.421 216.669 182.591 216.669 182.591C216.669 182.591 216.596 181.079 215.536 180.255C214.388 179.367 213.5 178.71 210.932 181.825C208.361 184.942 207.012 189.778 203.58 189.408C201.266 189.161 196.416 179.785 192.907 183.986C192.229 184.798 195.515 188.401 196.946 191.991C198.901 196.882 196.87 198.967 196.092 205.293C194.995 214.257 162.444 245.241 162.444 245.241L148.019 220.161L127.447 230.236L144.433 272.242L172.467 273.404C172.467 273.404 183.678 259.41 193.885 245.003C204.093 230.595 211.302 217.74 214.897 214.406Z" fill="white"/>
<path d="M172.468 273.951H172.442L144.412 272.794C144.309 272.789 144.21 272.753 144.127 272.694C144.043 272.634 143.978 272.552 143.938 272.456L126.956 230.437C126.906 230.312 126.904 230.174 126.951 230.047C126.999 229.921 127.092 229.818 127.213 229.759L147.785 219.675C147.906 219.616 148.045 219.606 148.175 219.645C148.304 219.684 148.413 219.771 148.48 219.889L162.568 244.401C166.641 240.478 194.586 213.331 195.563 205.241C195.79 203.499 196.121 201.77 196.553 200.067C197.24 197.215 197.698 195.328 196.446 192.199C195.745 190.602 194.898 189.072 193.919 187.628C192.639 185.608 191.866 184.387 192.498 183.653C192.794 183.272 193.169 182.961 193.597 182.74C194.026 182.518 194.497 182.393 194.978 182.372C197.084 182.343 199.115 184.55 200.9 186.492C201.911 187.598 203.055 188.844 203.648 188.908C205.702 189.127 206.961 187.064 208.408 184.679C209.043 183.575 209.757 182.519 210.542 181.519C213.246 178.237 214.462 178.765 215.884 179.867C216.491 180.367 216.916 181.055 217.096 181.822C217.826 181.578 219.047 181.498 220.549 182.642C221.009 182.973 221.381 183.413 221.63 183.92C221.881 184.429 222.002 184.99 221.984 185.558C222.473 185.453 222.979 185.464 223.463 185.585C223.947 185.707 224.398 185.939 224.78 186.261C225.297 186.672 225.688 187.219 225.914 187.838C226.14 188.458 226.192 189.129 226.06 189.775C226.932 189.796 227.765 190.145 228.392 190.752C230.005 192.153 228.545 195.334 227.312 197.584C226.697 198.78 225.822 199.823 224.75 200.635C224.213 201.861 220.528 209.921 215.273 214.796C213.305 216.619 210.081 221.592 206.005 227.893C202.803 232.837 198.821 238.992 194.333 245.323C184.234 259.581 172.989 273.609 172.895 273.75C172.844 273.814 172.779 273.866 172.705 273.899C172.631 273.935 172.55 273.953 172.468 273.951ZM144.801 271.735L172.22 272.87C173.659 271.066 184.045 257.984 193.451 244.695C197.924 238.378 201.902 232.235 205.095 227.299C209.366 220.692 212.468 215.914 214.535 213.997C219.944 208.986 223.782 200.145 223.819 200.054C223.864 199.953 223.938 199.869 224.033 199.812C225.017 199.091 225.816 198.148 226.365 197.058C228.404 193.31 228.209 191.982 227.684 191.508C226.441 190.432 225.617 190.88 225.583 190.901C225.485 190.957 225.373 190.98 225.261 190.969C225.149 190.958 225.044 190.912 224.96 190.837C224.875 190.764 224.816 190.668 224.791 190.56C224.764 190.453 224.773 190.339 224.814 190.236C224.848 190.156 225.621 188.217 224.115 187.06C222.607 185.903 221.608 186.816 221.596 186.825C221.505 186.902 221.389 186.946 221.272 186.952C221.153 186.955 221.035 186.921 220.937 186.85C220.841 186.779 220.772 186.679 220.74 186.564C220.706 186.448 220.713 186.325 220.759 186.215C220.936 185.72 220.946 185.181 220.788 184.68C220.631 184.178 220.313 183.742 219.884 183.44C218.15 182.121 217.053 182.948 217.011 182.982C216.934 183.041 216.843 183.077 216.747 183.087C216.653 183.098 216.555 183.082 216.468 183.043C216.381 183.004 216.306 182.94 216.251 182.861C216.195 182.783 216.163 182.69 216.156 182.594C216.156 182.594 216.071 181.314 215.225 180.656C214.189 179.853 213.616 179.41 211.363 182.146C210.613 183.107 209.932 184.12 209.326 185.177C207.828 187.653 206.274 190.214 203.538 189.921C202.543 189.814 201.471 188.639 200.122 187.162C198.568 185.455 196.626 183.367 194.999 183.388C194.675 183.408 194.36 183.498 194.074 183.652C193.789 183.805 193.54 184.018 193.344 184.276C193.344 184.679 194.196 186.026 194.828 187.021C195.839 188.525 196.713 190.115 197.441 191.774C198.816 195.214 198.296 197.322 197.6 200.286C197.169 201.946 196.845 203.634 196.626 205.335C195.515 214.399 164.152 244.337 162.82 245.61C162.761 245.665 162.69 245.706 162.612 245.731C162.534 245.756 162.452 245.761 162.372 245.75C162.292 245.738 162.216 245.709 162.149 245.665C162.083 245.619 162.027 245.56 161.988 245.489L147.815 220.82L128.143 230.462L144.801 271.735Z" fill="#313131"/>
<path d="M222.424 201.557C222.119 201.567 221.82 201.478 221.569 201.306C220.448 200.512 221.144 197.95 222.231 195.368C220.839 196.955 219.307 198.394 218.168 198.604C217.977 198.644 217.78 198.648 217.587 198.611C217.395 198.573 217.214 198.497 217.053 198.385C215.866 197.532 216.357 195.218 217.347 192.763C215.289 195.213 213.036 197.19 211.628 196.354C210.838 195.884 210.282 194.577 213.023 188.571L213.048 188.515C211.452 190.471 209.723 192.212 208.541 192.382C208.354 192.414 208.166 192.406 207.984 192.356C207.803 192.304 207.634 192.215 207.491 192.092C206.074 190.862 207.619 186.414 208.127 185.079C208.152 185.013 208.189 184.953 208.237 184.903C208.285 184.851 208.344 184.81 208.408 184.782C208.472 184.752 208.541 184.737 208.611 184.734C208.68 184.732 208.751 184.744 208.815 184.769C208.881 184.794 208.942 184.832 208.993 184.88C209.043 184.928 209.084 184.987 209.115 185.051C209.143 185.115 209.159 185.182 209.161 185.254C209.163 185.323 209.15 185.392 209.125 185.458C208.209 187.87 207.614 190.786 208.191 191.29C208.219 191.311 208.253 191.325 208.287 191.33C208.322 191.338 208.358 191.334 208.392 191.325C210.01 191.094 214.049 185.672 216.211 182.313C216.288 182.196 216.405 182.114 216.541 182.082C216.676 182.051 216.817 182.074 216.936 182.146C217.055 182.217 217.141 182.333 217.176 182.466C217.212 182.6 217.194 182.742 217.126 182.863C217.126 182.893 215.418 185.903 213.992 189.018C211.332 194.851 212.16 195.423 212.169 195.423C213.369 196.131 217.591 191.201 220.788 186.154C220.866 186.042 220.985 185.962 221.119 185.935C221.254 185.907 221.393 185.932 221.51 186.005C221.626 186.076 221.712 186.192 221.745 186.325C221.779 186.457 221.761 186.597 221.694 186.718C218.885 191.286 216.546 196.708 217.667 197.502C217.714 197.53 217.765 197.548 217.817 197.553C217.87 197.56 217.924 197.555 217.975 197.539C219.563 197.245 223.038 192.843 224.853 190.168C224.932 190.06 225.049 189.985 225.181 189.96C225.313 189.933 225.45 189.958 225.564 190.029C225.677 190.1 225.761 190.211 225.797 190.339C225.832 190.469 225.818 190.608 225.758 190.727C223.128 195.401 221.477 199.908 222.201 200.439C222.509 200.656 223.525 200.213 224.243 199.679C224.355 199.593 224.497 199.558 224.638 199.577C224.779 199.597 224.905 199.672 224.989 199.785C225.074 199.899 225.111 200.042 225.09 200.181C225.07 200.321 224.996 200.448 224.882 200.533C224.606 200.738 223.449 201.557 222.424 201.557Z" fill="#313131"/>
<path d="M217.331 204.55C217.277 204.55 217.226 204.542 217.176 204.524C211.448 202.817 208.361 197.569 208.233 197.349C208.192 197.288 208.166 197.219 208.153 197.147C208.141 197.076 208.143 197.003 208.159 196.932C208.176 196.861 208.207 196.795 208.249 196.736C208.294 196.678 208.349 196.628 208.411 196.592C208.474 196.556 208.545 196.533 208.616 196.524C208.689 196.516 208.762 196.523 208.831 196.542C208.901 196.564 208.965 196.599 209.022 196.645C209.077 196.692 209.123 196.749 209.155 196.815C209.186 196.866 212.169 201.912 217.484 203.504C217.609 203.539 217.714 203.62 217.785 203.728C217.854 203.837 217.881 203.967 217.863 204.093C217.844 204.221 217.779 204.337 217.682 204.422C217.584 204.506 217.459 204.55 217.331 204.55Z" fill="#313131"/>
<path d="M206.884 207.064C206.799 207.066 206.715 207.044 206.64 207.005C206.578 206.973 206.523 206.929 206.476 206.877C206.432 206.824 206.396 206.761 206.375 206.694C206.354 206.628 206.346 206.557 206.352 206.487C206.357 206.418 206.377 206.35 206.41 206.288C209.339 200.61 205.731 194.107 205.693 194.045C205.658 193.983 205.636 193.915 205.627 193.846C205.618 193.776 205.624 193.705 205.642 193.637C205.661 193.57 205.691 193.506 205.736 193.45C205.779 193.395 205.832 193.349 205.892 193.313C205.955 193.279 206.022 193.256 206.092 193.247C206.161 193.239 206.232 193.244 206.3 193.263C206.368 193.281 206.432 193.313 206.487 193.356C206.542 193.401 206.588 193.454 206.624 193.514C206.786 193.801 210.554 200.579 207.357 206.774C207.313 206.861 207.245 206.934 207.162 206.985C207.078 207.037 206.982 207.064 206.884 207.064Z" fill="#313131"/>
<path d="M109.221 266.89L179.383 272.769L179.814 267.634L109.651 261.754L109.221 266.89Z" fill="#17C653"/>
<path d="M179.396 273.298H179.353L109.201 267.415C109.06 267.402 108.93 267.336 108.839 267.228C108.748 267.119 108.703 266.98 108.715 266.838L109.142 261.715C109.147 261.646 109.165 261.578 109.197 261.516C109.228 261.453 109.272 261.398 109.325 261.354C109.436 261.263 109.576 261.219 109.718 261.229L179.871 267.121C180.011 267.132 180.141 267.199 180.232 267.308C180.325 267.417 180.369 267.555 180.357 267.696L179.93 272.819C179.919 272.952 179.858 273.077 179.759 273.168C179.661 273.258 179.531 273.308 179.396 273.307V273.298ZM109.812 266.395L178.913 272.187L179.255 268.12L110.149 262.326L109.812 266.395Z" fill="#313131"/>
<path d="M237.133 224.191L167.592 218.365L147.767 270.04L217.31 275.872L237.133 224.191Z" fill="#17C653"/>
<path opacity="0.15" d="M171.562 218.698L167.592 218.365L147.767 270.04L151.835 270.382L171.562 218.698Z" fill="white"/>
<path d="M217.31 276.406H217.267L147.72 270.574C147.638 270.567 147.559 270.54 147.488 270.498C147.418 270.455 147.358 270.396 147.315 270.325C147.271 270.256 147.244 270.177 147.236 270.095C147.227 270.012 147.239 269.93 147.268 269.852L167.093 218.173C167.135 218.064 167.211 217.973 167.308 217.913C167.406 217.851 167.52 217.822 167.635 217.831L237.182 223.662C237.263 223.669 237.344 223.696 237.413 223.739C237.484 223.782 237.543 223.84 237.587 223.91C237.63 223.979 237.659 224.059 237.666 224.141C237.675 224.223 237.662 224.307 237.634 224.383L217.808 276.085C217.767 276.183 217.698 276.265 217.609 276.322C217.518 276.379 217.415 276.407 217.31 276.406ZM148.519 269.576L216.955 275.313L236.382 224.67L167.947 218.928L148.519 269.576Z" fill="#313131"/>
<path d="M151.836 270.916H151.793L147.72 270.574C147.638 270.567 147.559 270.54 147.488 270.498C147.418 270.455 147.358 270.396 147.315 270.325C147.271 270.256 147.244 270.177 147.236 270.095C147.227 270.012 147.239 269.93 147.268 269.852L167.093 218.173C167.135 218.064 167.211 217.973 167.308 217.913C167.406 217.851 167.52 217.822 167.635 217.831L171.61 218.164C171.692 218.171 171.771 218.196 171.842 218.24C171.912 218.283 171.972 218.342 172.015 218.411C172.059 218.481 172.086 218.561 172.094 218.643C172.102 218.725 172.091 218.808 172.062 218.885L152.318 270.574C152.28 270.672 152.214 270.758 152.128 270.818C152.043 270.879 151.941 270.912 151.836 270.916ZM148.519 269.57L151.481 269.818L170.811 219.166L167.947 218.928L148.519 269.57Z" fill="#313131"/>
<path d="M201.961 250.019C204.129 246.119 203.474 241.617 200.498 239.964C197.521 238.31 193.353 240.129 191.185 244.027C189.018 247.927 189.673 252.429 192.648 254.083C195.624 255.736 199.793 253.917 201.961 250.019Z" fill="white"/>
<path d="M195.063 255.24C194.128 255.247 193.208 255.01 192.391 254.556C190.803 253.673 189.76 252.052 189.463 249.98C189.203 247.829 189.652 245.652 190.739 243.778C193.048 239.629 197.569 237.712 200.778 239.508C203.99 241.306 204.759 246.138 202.448 250.288C201.426 252.198 199.808 253.721 197.841 254.629C196.968 255.024 196.022 255.232 195.063 255.24ZM191.647 244.298C190.675 245.975 190.277 247.924 190.513 249.848C190.764 251.555 191.613 252.926 192.904 253.643C194.193 254.36 195.789 254.369 197.389 253.67C199.143 252.853 200.583 251.489 201.492 249.784C203.511 246.151 202.948 241.968 200.232 240.457C197.518 238.945 193.671 240.652 191.652 244.298H191.647Z" fill="#313131"/>
<path d="M41.8447 255.047C44.4061 265.46 51.0828 305.354 70.9677 304.252C90.8526 303.15 139.015 283.965 150.046 282.481C161.077 280.994 187.525 279.12 187.635 273.383L185.125 273.173L157.44 270.856C157.44 270.856 165.257 266.553 162.759 264.175C161.688 263.153 146.712 268.196 138.426 269.332C130.14 270.467 84.9829 273.759 84.9829 273.759L79.7192 248.144L60.3464 242.488L41.8447 255.047Z" fill="white"/>
<path d="M70.1618 304.807C52.3687 304.807 45.2565 272.764 42.1914 258.958C41.8583 257.468 41.5725 256.179 41.3375 255.172C41.3117 255.065 41.3188 254.955 41.3576 254.853C41.3966 254.752 41.4655 254.665 41.5554 254.604L60.0784 242.048C60.1439 242.003 60.2187 241.975 60.297 241.963C60.3751 241.952 60.4552 241.957 60.5309 241.98L79.9078 247.637C80.0005 247.664 80.0838 247.717 80.1493 247.788C80.2147 247.86 80.2595 247.947 80.2793 248.041L85.4447 273.191C90.2686 272.837 130.675 269.866 138.38 268.801C142.222 268.273 147.563 266.89 152.267 265.665C159.892 263.684 162.419 263.104 163.14 263.785C163.381 264.001 163.565 264.271 163.677 264.576C163.789 264.878 163.824 265.204 163.781 265.524C163.546 267.347 160.882 269.341 159.144 270.459L187.683 272.853C187.819 272.863 187.947 272.926 188.038 273.025C188.13 273.127 188.18 273.259 188.178 273.396C188.084 278.287 173.919 280.286 156.814 282.215C154.329 282.497 151.981 282.762 150.124 283.009C145.923 283.574 136.066 286.804 124.651 290.544C106.213 296.577 83.2804 304.102 70.9943 304.786C70.7168 304.798 70.435 304.807 70.1618 304.807ZM42.4518 255.286C42.678 256.238 42.9384 257.422 43.233 258.732C46.2213 272.281 53.2267 303.745 70.166 303.745C70.4222 303.745 70.6783 303.745 70.9387 303.745C83.084 303.07 105.944 295.578 124.301 289.558C135.763 285.8 145.667 282.557 149.966 281.977C151.832 281.724 154.188 281.459 156.677 281.178C167.588 279.948 185.562 277.92 186.987 273.89L157.403 271.39C157.288 271.379 157.18 271.331 157.095 271.254C157.01 271.178 156.951 271.074 156.929 270.962C156.904 270.85 156.916 270.733 156.964 270.628C157.012 270.523 157.092 270.437 157.193 270.382C158.654 269.576 162.496 267.107 162.717 265.378C162.738 265.234 162.723 265.087 162.674 264.949C162.625 264.811 162.543 264.688 162.436 264.588C161.62 264.332 156.792 265.589 152.528 266.694C147.798 267.922 142.436 269.319 138.521 269.857C130.329 270.984 85.5002 274.254 85.0477 274.284C84.9178 274.293 84.7889 274.255 84.6851 274.177C84.5814 274.099 84.5098 273.985 84.4842 273.857L79.2889 248.563L60.4625 243.064L42.4518 255.286Z" fill="#313131"/>
<path d="M49.5676 153.399C54.158 153.399 57.8793 149.678 57.8793 145.087C57.8793 140.497 54.158 136.775 49.5676 136.775C44.9771 136.775 41.2559 140.497 41.2559 145.087C41.2559 149.678 44.9771 153.399 49.5676 153.399Z" fill="#313131"/>
<path d="M74.4264 144.34C78.3449 144.34 81.5215 141.164 81.5215 137.245C81.5215 133.327 78.3449 130.15 74.4264 130.15C70.508 130.15 67.3315 133.327 67.3315 137.245C67.3315 141.164 70.508 144.34 74.4264 144.34Z" fill="#313131"/>
<path d="M49.5763 153.941C48.0059 153.943 46.4632 153.527 45.1067 152.736C43.75 151.946 42.6284 150.808 41.8566 149.44C41.0849 148.072 40.691 146.524 40.7154 144.954C40.7398 143.384 41.1816 141.848 41.9954 140.505C42.8092 139.162 43.9659 138.06 45.3463 137.311C46.7268 136.563 48.2817 136.195 49.8513 136.247C51.4207 136.297 52.9485 136.765 54.2776 137.601C55.6067 138.438 56.6891 139.613 57.4141 141.006C58.1131 142.354 58.4537 143.86 58.4033 145.377C58.3527 146.895 57.9129 148.375 57.1258 149.673C56.3388 150.972 55.2311 152.047 53.909 152.794C52.587 153.542 51.095 153.936 49.5763 153.941ZM49.5549 137.313C47.8577 137.316 46.208 137.874 44.8575 138.902C43.507 139.93 42.53 141.372 42.0752 143.007C41.6204 144.642 41.7129 146.381 42.3386 147.959C42.9645 149.537 44.0891 150.867 45.541 151.745C46.9929 152.624 48.6925 153.004 50.3805 152.827C52.0684 152.65 53.6523 151.925 54.8901 150.764C56.1279 149.603 56.952 148.069 57.2367 146.396C57.5213 144.722 57.2507 143.002 56.4665 141.497C55.8077 140.234 54.8148 139.176 53.596 138.438C52.3774 137.7 50.9796 137.311 49.5549 137.313Z" fill="#313131"/>
<path d="M74.4353 144.878C73.3358 144.878 72.2491 144.64 71.25 144.181C70.2509 143.722 69.3629 143.053 68.6466 142.219C67.9303 141.384 67.4029 140.405 67.1005 139.348C66.7981 138.291 66.7276 137.181 66.8942 136.094C67.0606 135.007 67.4602 133.969 68.0652 133.051C68.6703 132.133 69.4666 131.357 70.3999 130.775C71.333 130.193 72.3809 129.821 73.4716 129.682C74.5622 129.543 75.6701 129.641 76.7193 129.971C77.6767 130.268 78.5656 130.753 79.3337 131.397C80.102 132.041 80.734 132.832 81.1931 133.723C81.7976 134.885 82.0927 136.184 82.0502 137.493C82.0075 138.803 81.6285 140.079 80.9496 141.2C80.2707 142.321 79.3148 143.248 78.1739 143.892C77.0331 144.536 75.7454 144.876 74.4353 144.878ZM74.4353 130.679C73.0024 130.68 71.609 131.149 70.4679 132.016C69.3266 132.882 68.5001 134.099 68.1147 135.479C67.7292 136.859 67.8057 138.327 68.3326 139.659C68.8595 140.992 69.8079 142.115 71.033 142.859C72.2582 143.602 73.6927 143.924 75.118 143.775C76.5432 143.627 77.8807 143.017 78.9266 142.037C79.9724 141.057 80.6691 139.763 80.9103 138.35C81.1515 136.938 80.924 135.485 80.2625 134.214C79.7063 133.149 78.8691 132.257 77.8419 131.634C76.8148 131.011 75.6367 130.681 74.4353 130.679Z" fill="#313131"/>
<path d="M89.3248 189.698L117.799 252.507L67.8091 195.987L59.3267 168.221L80.0355 161.467L89.3248 189.698Z" fill="white"/>
<path d="M117.799 253.032C117.723 253.032 117.648 253.016 117.578 252.984C117.509 252.952 117.448 252.906 117.398 252.849L67.412 196.341C67.3613 196.282 67.3234 196.215 67.3011 196.14L58.8271 168.379C58.7867 168.245 58.8002 168.1 58.8646 167.976C58.9292 167.851 59.0398 167.757 59.1729 167.713L79.8818 160.959C80.0165 160.916 80.1629 160.928 80.2891 160.992C80.4153 161.055 80.5114 161.167 80.5562 161.301L89.837 189.506L118.298 252.285C118.35 252.402 118.359 252.532 118.323 252.655C118.287 252.778 118.209 252.883 118.102 252.952C118.012 253.009 117.906 253.038 117.799 253.032ZM68.2787 195.709L115.839 249.497L88.838 189.921C88.838 189.921 88.838 189.882 88.8167 189.864L79.6938 162.142L59.9883 168.567L68.2787 195.709Z" fill="#313131"/>
<path d="M60.5352 171.836L63.9503 182.172C63.9503 182.172 67.5021 180.618 76.7232 174.219L60.5352 171.836Z" fill="#313131"/>
<path d="M63.9075 182.704C63.8326 182.704 63.7585 182.688 63.6898 182.658C63.6225 182.628 63.5622 182.583 63.5129 182.528C63.4636 182.473 63.4266 182.409 63.4038 182.338L60.4155 173.224C60.389 173.14 60.3831 173.052 60.3986 172.966C60.4139 172.88 60.4502 172.799 60.504 172.73C60.5579 172.661 60.6277 172.606 60.7074 172.57C60.7873 172.534 60.8746 172.518 60.962 172.524L76.7272 173.685C76.838 173.692 76.9437 173.734 77.0295 173.804C77.1155 173.875 77.1772 173.97 77.2062 174.077C77.2354 174.184 77.2304 174.298 77.192 174.402C77.1536 174.506 77.0838 174.596 76.9919 174.658C67.8351 181.01 64.279 182.594 64.1295 182.658C64.0597 182.69 63.984 182.706 63.9075 182.704ZM61.6706 173.629L64.232 181.407C65.4486 180.784 68.834 178.936 75.1393 174.624L61.6706 173.629Z" fill="#313131"/>
<path d="M83.5494 154.133C86.2729 163.461 85.513 171.636 74.4436 175.115C66.738 177.531 58.2 171.657 55.4764 162.308C52.7529 152.959 56.834 143.589 64.5865 141.326C72.3389 139.064 80.8299 144.81 83.5494 154.133Z" fill="white"/>
<path d="M70.9253 176.191C68.5772 176.171 66.2706 175.567 64.2146 174.432C59.8644 172.088 56.4963 167.738 54.9637 162.479C52.1632 152.887 56.4108 143.179 64.4365 140.835C72.4622 138.491 81.2605 144.391 84.0738 153.984C87.4549 165.561 84.3599 172.639 74.6138 175.627C73.4196 175.999 72.1761 176.189 70.9253 176.191ZM68.0396 141.407C66.9214 141.405 65.8087 141.563 64.7354 141.877C57.2775 144.054 53.3542 153.173 55.9883 162.197C57.4397 167.166 60.6243 171.286 64.7183 173.493C66.1564 174.311 67.7439 174.833 69.3872 175.027C71.0303 175.222 72.6957 175.085 74.2851 174.624C83.4806 171.802 86.2639 165.348 83.0364 154.299C80.7867 146.577 74.4771 141.39 68.0396 141.39V141.407Z" fill="#313131"/>
<path d="M82.5587 151.431C82.5587 151.431 80.3175 144.361 75.5576 140.694C70.9045 137.112 64.8852 136.711 59.6342 139.887C53.4144 143.657 48.3513 151.153 52.71 162.423C54.9854 168.353 60.6802 172.349 60.6802 172.349L58.0634 167.973C58.0634 167.973 60.3174 167.119 60.0442 165.975C60.0442 165.975 53.6064 161.386 56.1337 158.27C58.4561 155.414 60.7955 159.55 60.7955 159.55C63.2779 157.59 65.6467 155.491 67.8906 153.262C70.2644 150.777 72.4397 148.109 74.3965 145.283L82.5587 151.431Z" fill="#313131"/>
<path d="M60.6796 172.87C60.5699 172.87 60.4628 172.837 60.3722 172.776C60.1331 172.609 54.5321 168.626 52.2098 162.611C48.5129 153.044 51.1852 144.378 59.3604 139.426C64.6881 136.199 71.019 136.523 75.8813 140.28C80.7437 144.037 82.9721 150.982 83.0661 151.281C83.1001 151.389 83.099 151.506 83.0625 151.613C83.0262 151.72 82.9566 151.813 82.8639 151.879C82.7711 151.944 82.6601 151.977 82.5467 151.975C82.4335 151.973 82.3238 151.935 82.2336 151.866L74.5153 146.026C72.626 148.71 70.5383 151.249 68.2698 153.621C66.0073 155.864 63.6215 157.979 61.1235 159.956C61.0635 160.002 60.9943 160.034 60.9207 160.051C60.8471 160.068 60.7707 160.069 60.6966 160.054C60.6221 160.039 60.5518 160.008 60.4898 159.964C60.428 159.92 60.3762 159.864 60.338 159.798C60.0391 159.269 59.0316 157.881 57.9985 157.8C57.4991 157.757 57.0295 158.022 56.5557 158.607C56.3734 158.83 56.2409 159.089 56.1673 159.367C56.0936 159.646 56.0806 159.937 56.1288 160.22C56.4702 162.718 60.3422 165.51 60.3978 165.54C60.5044 165.613 60.5792 165.725 60.6069 165.851C60.8802 166.987 59.6507 167.811 58.8737 168.212L61.1833 172.075C61.233 172.156 61.26 172.249 61.2618 172.343C61.2634 172.438 61.2397 172.531 61.1931 172.614C61.1465 172.696 61.0786 172.765 60.9966 172.812C60.9143 172.859 60.8212 172.883 60.7266 172.882L60.6796 172.87ZM67.0829 138.248C64.54 138.272 62.0528 138.996 59.894 140.34C56.2014 142.581 48.1501 149.189 53.1874 162.227C54.4426 165.476 56.7733 168.148 58.5578 169.856L57.5888 168.234C57.5487 168.167 57.5236 168.092 57.5154 168.015C57.5072 167.937 57.516 167.859 57.5412 167.785C57.5665 167.712 57.6075 167.645 57.6614 167.589C57.7153 167.532 57.7808 167.489 57.8534 167.461C58.5151 167.205 59.3903 166.662 59.5012 166.24C58.6219 165.57 55.3817 162.961 55.0273 160.353C54.9606 159.923 54.986 159.483 55.1025 159.063C55.2187 158.644 55.423 158.254 55.702 157.92C56.4063 157.066 57.2004 156.639 58.0626 156.724C59.3433 156.831 60.3935 158.026 60.9015 158.739C63.2025 156.9 65.4028 154.937 67.4929 152.861C69.8441 150.396 71.9993 147.751 73.939 144.95C73.9797 144.891 74.0324 144.84 74.0935 144.801C74.1545 144.762 74.223 144.736 74.2944 144.724C74.366 144.713 74.4391 144.716 74.5093 144.733C74.5796 144.751 74.6454 144.783 74.7031 144.827L81.3799 149.881C80.415 147.593 78.3914 143.546 75.2111 141.113C72.9019 139.281 70.0473 138.273 67.1 138.248H67.0829Z" fill="#313131"/>
<path d="M77.5256 160.989C77.3951 160.991 77.2686 160.945 77.1698 160.86C77.071 160.775 77.0069 160.656 76.9896 160.527C76.9722 160.398 77.0028 160.266 77.0756 160.158C77.1484 160.05 77.2584 159.972 77.3848 159.939C77.9679 159.786 78.5388 159.589 79.0924 159.35C78.9131 158.595 78.0763 156.238 77.278 154.146C77.2474 154.08 77.2307 154.008 77.2289 153.935C77.2273 153.862 77.2406 153.789 77.268 153.721C77.2956 153.654 77.3369 153.592 77.3891 153.541C77.4414 153.49 77.5037 153.45 77.5721 153.424C77.6402 153.398 77.7132 153.386 77.7864 153.389C77.8594 153.393 77.9309 153.411 77.9968 153.443C78.0625 153.475 78.1208 153.52 78.1684 153.576C78.2157 153.632 78.2513 153.696 78.2727 153.766C80.3731 159.256 80.2406 159.564 80.1468 159.786C80.0528 160.008 79.9078 160.362 77.6623 160.968C77.6178 160.981 77.5719 160.988 77.5256 160.989Z" fill="#313131"/>
<path d="M70.3753 157.578C70.3301 157.584 70.2841 157.584 70.2387 157.578C70.1022 157.541 69.9858 157.452 69.9148 157.329C69.8436 157.207 69.8235 157.062 69.8589 156.925C69.8589 156.891 70.8918 153.16 74.7938 152.805C74.9335 152.795 75.0716 152.84 75.1782 152.931C75.285 153.022 75.3516 153.151 75.3641 153.291C75.3764 153.43 75.3333 153.569 75.2441 153.677C75.1551 153.785 75.0269 153.854 74.8877 153.868C71.7457 154.154 70.926 157.074 70.8918 157.198C70.8585 157.309 70.7902 157.406 70.6971 157.474C70.6038 157.543 70.491 157.579 70.3753 157.578Z" fill="#313131"/>
<path d="M78.5372 152.238C78.4276 152.238 78.3206 152.204 78.2309 152.141C78.1412 152.078 78.073 151.989 78.0358 151.886C77.9984 151.783 77.9938 151.671 78.0225 151.565C78.0511 151.459 78.1116 151.365 78.1958 151.294C78.8473 150.76 79.6568 150.454 80.4991 150.425C81.3416 150.396 82.1702 150.644 82.8575 151.132C82.9721 151.214 83.0495 151.339 83.0727 151.478C83.096 151.617 83.0631 151.76 82.9814 151.875C82.8982 151.99 82.7731 152.067 82.6332 152.091C82.4933 152.114 82.35 152.081 82.2343 151.999C80.5266 150.791 78.9386 152.063 78.8745 152.118C78.779 152.195 78.66 152.237 78.5372 152.238Z" fill="#313131"/>
<path d="M58.2378 162.278C58.1141 162.278 57.9943 162.234 57.8993 162.155C57.804 162.076 57.7392 161.966 57.7161 161.845C57.693 161.723 57.7127 161.597 57.772 161.489C57.8314 161.38 57.9267 161.295 58.0415 161.249L57.1194 160.396C57.0648 160.349 57.0201 160.292 56.9883 160.228C56.9562 160.163 56.9375 160.094 56.9331 160.022C56.9288 159.95 56.939 159.879 56.9628 159.811C56.9868 159.744 57.0242 159.681 57.0728 159.629C57.1212 159.576 57.18 159.533 57.2453 159.504C57.3106 159.474 57.3811 159.458 57.4528 159.456C57.5246 159.454 57.5958 159.467 57.6625 159.493C57.7291 159.52 57.7898 159.56 57.8409 159.61L59.4075 161.053C59.4746 161.115 59.5244 161.193 59.5524 161.28C59.5805 161.367 59.5858 161.46 59.5678 161.549C59.5499 161.639 59.5091 161.722 59.4496 161.791C59.3902 161.861 59.314 161.914 59.2282 161.945L58.4213 162.24C58.363 162.263 58.3008 162.276 58.2378 162.278Z" fill="#313131"/>
<path d="M74.8746 158.163C75.214 158.163 75.4894 157.888 75.4894 157.548C75.4894 157.209 75.214 156.933 74.8746 156.933C74.5351 156.933 74.2598 157.209 74.2598 157.548C74.2598 157.888 74.5351 158.163 74.8746 158.163Z" fill="#313131"/>
<path d="M81.21 155.717C81.5495 155.717 81.8247 155.442 81.8247 155.102C81.8247 154.762 81.5495 154.487 81.21 154.487C80.8704 154.487 80.5952 154.762 80.5952 155.102C80.5952 155.442 80.8704 155.717 81.21 155.717Z" fill="#313131"/>
<path d="M75.2206 165.194C73.3678 165.194 72.2323 163.584 71.8352 162.577C71.7912 162.447 71.7991 162.304 71.8575 162.18C71.9158 162.055 72.0202 161.958 72.1485 161.908C72.2768 161.858 72.4194 161.86 72.5465 161.913C72.6734 161.966 72.7751 162.067 72.8301 162.193C72.8726 162.308 73.8418 164.699 76.0147 163.994C76.0827 163.966 76.1558 163.952 76.2295 163.953C76.3032 163.955 76.3758 163.971 76.4427 164.002C76.5097 164.033 76.5695 164.077 76.6184 164.132C76.6674 164.187 76.7044 164.252 76.7272 164.322C76.75 164.392 76.758 164.466 76.7507 164.539C76.7434 164.613 76.7211 164.684 76.685 164.748C76.649 164.812 76.5999 164.868 76.5412 164.913C76.4824 164.957 76.415 164.989 76.3434 165.006C75.9817 165.129 75.6026 165.192 75.2206 165.194Z" fill="#313131"/>
<path d="M60.0694 168.639C61.3238 168.639 62.3405 167.622 62.3405 166.368C62.3405 165.114 61.3238 164.097 60.0694 164.097C58.8151 164.097 57.7983 165.114 57.7983 166.368C57.7983 167.622 58.8151 168.639 60.0694 168.639Z" fill="#17C653"/>
<path d="M60.0743 169.173H59.8353C59.2814 169.127 58.7534 168.918 58.3185 168.572C57.8835 168.226 57.561 167.758 57.3917 167.229C57.2224 166.7 57.2141 166.132 57.3677 165.598C57.5211 165.064 57.8298 164.587 58.2543 164.228C58.6788 163.869 59.2002 163.645 59.7525 163.582C60.3049 163.52 60.8632 163.623 61.357 163.878C61.8508 164.133 62.2577 164.529 62.5265 165.016C62.7951 165.502 62.9133 166.058 62.8663 166.612C62.8054 167.31 62.485 167.961 61.9681 168.435C61.4514 168.909 60.7757 169.172 60.0743 169.173ZM60.0743 164.627C59.736 164.626 59.4047 164.724 59.1212 164.909C58.8376 165.094 58.614 165.357 58.4777 165.667C58.3413 165.976 58.2983 166.319 58.3534 166.653C58.4088 166.987 58.5601 167.297 58.7892 167.547C59.0181 167.796 59.3146 167.973 59.6425 168.056C59.9706 168.14 60.3157 168.126 60.6359 168.016C60.956 167.907 61.2374 167.706 61.4455 167.439C61.6536 167.172 61.7792 166.851 61.8075 166.514C61.8268 166.286 61.8011 166.057 61.7317 165.839C61.6623 165.621 61.5505 165.419 61.4031 165.245C61.2556 165.07 61.0751 164.927 60.872 164.822C60.6689 164.718 60.4471 164.654 60.2194 164.635L60.0743 164.627Z" fill="#17C653"/>
<path d="M156.681 223.073C150.277 221.165 148.531 229.57 145.871 231.183C142.068 233.484 139.468 231.469 135.583 232.648C134.439 232.988 133.374 233.554 132.451 234.31C131.527 235.067 130.764 236 130.204 237.053L141.257 264.374L109.666 261.728L109.239 266.85L138.196 269.28C137.611 269.369 136.983 269.464 136.3 269.558C132.006 270.168 85.0129 273.728 85.0129 273.728L80.5006 251.769C72.2742 251.68 69.9605 258.881 64.7779 260.469C59.5954 262.057 54.78 259.017 47.4116 259.09C40.0433 259.163 34.1095 270.766 34.1095 270.766C34.1095 270.766 31.1811 214.086 37.9857 207.051C44.7904 200.015 67.3307 194.372 67.3307 194.372C67.3307 194.372 80.0608 204.264 86.3789 201.505C92.697 198.748 89.3331 189.668 89.3331 189.668C89.3331 189.668 114.093 187.461 120.377 188.844C126.661 190.227 156.681 223.073 156.681 223.073Z" fill="white"/>
<path d="M85.009 274.293C84.8859 274.293 84.7666 274.25 84.671 274.172C84.5754 274.093 84.5094 273.986 84.4839 273.865L80.0613 252.333C75.549 252.431 72.9577 254.855 70.4518 257.199C68.7187 258.817 67.0835 260.35 64.9321 261.007C61.8797 261.947 59.028 261.361 55.7238 260.683C53.3076 260.183 50.5755 259.62 47.4121 259.65C40.4537 259.718 34.6393 270.923 34.5795 271.039C34.5265 271.144 34.4403 271.227 34.3344 271.277C34.2287 271.327 34.1092 271.341 33.9948 271.316C33.8791 271.293 33.7746 271.231 33.6973 271.142C33.6203 271.051 33.5747 270.939 33.5677 270.822C33.4483 268.499 30.7076 213.831 37.5934 206.71C44.4793 199.59 66.2681 194.116 67.1946 193.903C67.2729 193.883 67.3546 193.881 67.4338 193.897C67.5129 193.913 67.5873 193.947 67.6514 193.997C67.7751 194.095 80.1979 203.662 86.1573 201.062C91.9418 198.539 88.8554 189.963 88.8213 189.899C88.7935 189.821 88.7837 189.739 88.7926 189.657C88.8015 189.577 88.8287 189.499 88.8725 189.429C88.9163 189.36 88.9752 189.303 89.0448 189.26C89.1143 189.216 89.1926 189.189 89.2737 189.182C90.2898 189.091 114.196 186.987 120.484 188.37C126.849 189.766 155.84 221.388 157.069 222.731C157.14 222.819 157.182 222.925 157.188 223.038C157.195 223.15 157.166 223.262 157.105 223.356C157.045 223.451 156.956 223.523 156.851 223.564C156.747 223.605 156.632 223.612 156.523 223.586C152.544 222.399 150.547 225.601 148.754 228.422C147.865 229.839 147.097 231.06 146.145 231.64C143.823 233.045 141.876 232.922 140.023 232.836C138.593 232.68 137.146 232.788 135.754 233.157C133.669 233.792 131.902 235.195 130.811 237.084L141.769 264.196C141.803 264.28 141.815 264.373 141.803 264.463C141.791 264.554 141.756 264.64 141.702 264.713C141.648 264.787 141.576 264.846 141.493 264.884C141.41 264.921 141.318 264.937 141.227 264.93L110.166 262.326L109.825 266.395L138.231 268.782C138.36 268.792 138.481 268.851 138.57 268.946C138.66 269.042 138.711 269.164 138.716 269.294C138.72 269.426 138.676 269.553 138.593 269.652C138.51 269.754 138.393 269.82 138.265 269.839C137.684 269.93 137.052 270.022 136.369 270.117C132.1 270.724 86.9642 274.143 85.0432 274.287L85.009 274.293ZM80.3472 251.261H80.501C80.6233 251.261 80.7418 251.304 80.8362 251.38C80.9305 251.459 80.9946 251.567 81.0176 251.688L85.4359 273.191C89.7049 272.862 121.948 270.412 132.903 269.405L109.201 267.415C109.06 267.402 108.93 267.335 108.839 267.228C108.747 267.119 108.703 266.979 108.715 266.838L109.142 261.715C109.155 261.575 109.223 261.445 109.329 261.352C109.439 261.265 109.577 261.22 109.718 261.229L140.455 263.791L129.692 237.237C129.663 237.171 129.648 237.098 129.648 237.025C129.648 236.95 129.663 236.877 129.692 236.811C130.281 235.684 131.09 234.689 132.072 233.883C133.053 233.075 134.186 232.475 135.404 232.114C136.92 231.703 138.5 231.578 140.062 231.747C141.923 231.85 143.533 231.939 145.569 230.706C146.307 230.279 147.046 229.079 147.831 227.833C149.398 225.339 151.469 222.039 155.195 222.249C144.523 210.681 124.907 190.398 120.232 189.378C114.683 188.153 93.9952 189.805 90.0123 190.156C90.657 192.37 92.2321 199.547 86.563 202.005C85.6831 202.372 84.7369 202.552 83.7839 202.536C77.4572 202.536 68.693 196.131 67.1818 194.965C64.7101 195.606 44.5819 200.982 38.3405 207.436C32.4536 213.518 34.1014 259.09 34.5282 268.908C36.5007 265.638 41.4227 258.629 47.3779 258.573C50.6308 258.54 53.4441 259.12 55.9158 259.629C59.075 260.277 61.8071 260.836 64.5947 259.978C66.5157 259.394 68.0611 257.942 69.7176 256.409C72.3087 254.002 75.2374 251.261 80.3472 251.261Z" fill="#17C653"/>
<path d="M177.304 123.874C177.304 123.874 182.555 141.292 200.198 142.735C217.842 144.178 229.632 127.657 229.632 127.657C229.632 127.657 239.704 148.703 261.886 143.904C284.066 139.106 283.376 122.474 283.376 122.474C283.376 122.474 304.668 127.836 305.019 109.24C305.377 90.3329 285.129 95.221 285.129 95.221C285.129 95.221 287.135 87.5367 279.777 83.3532C272.416 79.1696 265.761 86.4822 265.761 86.4822C265.761 86.4822 275.225 61.543 251.161 55.195C225.974 48.5524 217.112 68.5056 217.112 68.5056C217.112 68.5056 213.796 47.0454 187.254 52.7701C165.509 57.4661 167.967 76.5655 167.967 76.5655C167.967 76.5655 125.922 69.9656 132.59 110.623C137.064 137.885 177.304 123.874 177.304 123.874Z" fill="white"/>
<path d="M255.503 145.143C247.183 145.143 241.04 141.463 237.087 137.979C234.072 135.309 231.523 132.153 229.547 128.643C227.174 131.631 216.873 143.354 202.359 143.354C201.633 143.354 200.898 143.328 200.156 143.264C184.097 141.954 178.037 127.495 176.971 124.549C173.423 125.706 153.214 131.806 140.919 124.494C136.095 121.612 133.107 116.972 132.066 110.709C130.106 98.7558 132.13 89.6714 138.085 83.6778C147.587 74.1067 163.831 75.5069 167.379 75.9467C167.215 72.6329 167.753 69.3219 168.958 66.2304C170.926 61.2186 175.677 54.7042 187.144 52.2496C196.151 50.3072 203.511 51.2378 209.009 55.0244C214.508 58.811 216.599 64.3607 217.313 66.9775C219.127 63.8726 221.521 61.1451 224.365 58.9433C229.355 55.0757 238.077 51.1994 251.299 54.6743C258.26 56.5143 263.145 60.0704 265.813 65.2486C269.574 72.5656 267.913 81.0437 266.872 84.7622C269.335 82.8027 274.508 79.7376 280.042 82.8837C286.235 86.4056 286.087 92.3695 285.795 94.5338C288.255 94.0814 295.836 93.1209 300.913 97.1933C304.097 99.7548 305.66 103.806 305.557 109.245C305.462 114.367 303.789 118.21 300.583 120.669C294.935 124.984 286.35 123.635 283.905 123.132C283.732 126.116 282.89 129.023 281.438 131.636C279.017 136.071 273.68 141.881 262 144.421C259.866 144.892 257.689 145.134 255.503 145.143ZM229.632 127.123H229.681C229.771 127.133 229.859 127.166 229.933 127.219C230.008 127.272 230.067 127.344 230.108 127.426C232.06 131.121 234.663 134.434 237.792 137.206C244.673 143.256 252.733 145.318 261.74 143.384C270.649 141.454 277.109 137.232 280.439 131.179C281.936 128.525 282.751 125.542 282.812 122.496C282.81 122.414 282.826 122.333 282.86 122.259C282.894 122.185 282.945 122.12 283.008 122.069C283.072 122.017 283.148 121.98 283.228 121.962C283.308 121.943 283.394 121.943 283.474 121.962C283.575 121.988 293.812 124.489 299.905 119.827C302.833 117.586 304.366 114.022 304.455 109.232C304.554 104.148 303.123 100.378 300.213 98.0387C294.624 93.5477 285.322 95.7206 285.227 95.7419C285.138 95.764 285.044 95.762 284.955 95.7366C284.866 95.7111 284.784 95.6631 284.72 95.5968C284.656 95.5306 284.61 95.4493 284.586 95.3605C284.562 95.2716 284.562 95.178 284.583 95.0888C284.661 94.79 286.39 87.7504 279.481 83.8186C272.575 79.8869 266.389 86.5594 266.128 86.8453C266.044 86.9347 265.93 86.992 265.809 87.0078C265.686 87.0237 265.562 86.9973 265.457 86.9327C265.352 86.8683 265.273 86.7698 265.232 86.6536C265.192 86.5375 265.192 86.4108 265.232 86.2948C265.275 86.1837 269.501 74.8025 264.805 65.7395C262.287 60.8431 257.628 57.4705 250.973 55.716C238.168 52.3393 229.77 56.0661 224.967 59.7843C221.859 62.1741 219.325 65.2283 217.548 68.7235C217.502 68.8294 217.422 68.9171 217.322 68.9739C217.221 69.0307 217.105 69.0533 216.989 69.0385C216.875 69.0236 216.768 68.972 216.687 68.8913C216.603 68.8105 216.549 68.7053 216.532 68.5912C216.532 68.5101 215.216 60.6211 208.344 55.8995C203.093 52.2966 196.019 51.4171 187.318 53.2955C178.482 55.1994 172.625 59.6989 169.902 66.6275C168.673 69.7657 168.175 73.1425 168.446 76.5017C168.453 76.58 168.442 76.6591 168.415 76.733C168.388 76.8068 168.344 76.8736 168.288 76.9286C168.229 76.9878 168.157 77.032 168.077 77.0573C167.998 77.0825 167.913 77.0882 167.831 77.0736C167.643 77.0437 148.881 74.2434 138.802 84.4163C133.103 90.1538 131.178 98.9308 133.082 110.521C134.055 116.455 136.864 120.843 141.427 123.559C154.234 131.17 176.86 123.431 177.086 123.354C177.155 123.328 177.229 123.317 177.302 123.321C177.376 123.326 177.448 123.346 177.513 123.379C177.578 123.412 177.635 123.458 177.681 123.514C177.727 123.57 177.762 123.634 177.782 123.704C177.833 123.874 183.148 140.78 200.216 142.184C217.283 143.589 229.052 127.49 229.168 127.328C229.223 127.258 229.294 127.203 229.374 127.167C229.456 127.132 229.545 127.116 229.632 127.123Z" fill="#313131"/>
<path d="M118.776 225.601C118.638 225.601 118.506 225.547 118.407 225.451C118.307 225.355 118.248 225.225 118.243 225.088C117.03 199.239 120.544 175.64 128.689 154.944C135.065 138.602 144.644 123.7 156.864 111.115C177.603 89.7953 199.298 82.235 199.516 82.1623C199.582 82.1344 199.655 82.1207 199.728 82.1218C199.801 82.1228 199.872 82.1389 199.94 82.1688C200.006 82.1988 200.065 82.2421 200.115 82.2958C200.164 82.3498 200.202 82.4131 200.225 82.482C200.248 82.5509 200.257 82.6241 200.252 82.6967C200.246 82.7693 200.227 82.8402 200.191 82.9046C200.157 82.969 200.111 83.0258 200.054 83.0714C199.997 83.117 199.931 83.1506 199.862 83.1698C199.648 83.2425 178.153 90.743 157.599 111.896C138.627 131.414 116.586 166.885 119.314 225.024C119.318 225.094 119.307 225.163 119.284 225.229C119.26 225.295 119.223 225.355 119.176 225.407C119.129 225.458 119.072 225.501 119.008 225.53C118.945 225.56 118.876 225.576 118.806 225.579L118.776 225.601Z" fill="#313131"/>
<path d="M134.277 224.784H134.23C134.089 224.773 133.958 224.705 133.867 224.597C133.776 224.488 133.731 224.349 133.743 224.209C135.877 199.648 141.538 177.587 150.593 158.645C157.85 143.478 167.272 130.261 178.61 119.371C197.927 100.8 216.382 95.3362 216.565 95.2807C216.635 95.2576 216.706 95.2485 216.779 95.254C216.85 95.2595 216.92 95.2796 216.984 95.3131C217.048 95.3466 217.105 95.3927 217.151 95.4486C217.196 95.5046 217.229 95.5693 217.251 95.6387C217.27 95.7079 217.276 95.7807 217.267 95.8523C217.258 95.924 217.235 95.9931 217.197 96.0554C217.162 96.1177 217.112 96.172 217.055 96.2149C216.996 96.2579 216.93 96.2885 216.861 96.3053C216.681 96.3608 198.436 101.774 179.294 120.182C161.637 137.172 139.592 169.027 134.798 224.301C134.786 224.433 134.726 224.554 134.63 224.643C134.534 224.732 134.408 224.784 134.277 224.784Z" fill="#313131"/>
<path d="M150.295 221.626C150.251 221.63 150.207 221.63 150.163 221.626C150.026 221.59 149.91 221.501 149.838 221.38C149.766 221.259 149.745 221.113 149.778 220.976C154.927 200.537 162.679 182.06 172.831 166.061C180.69 153.552 190.359 142.276 201.523 132.6C220.131 116.592 236.22 111.469 236.384 111.422C236.514 111.392 236.651 111.413 236.769 111.48C236.884 111.547 236.971 111.656 237.011 111.784C237.052 111.912 237.041 112.051 236.984 112.172C236.925 112.293 236.824 112.388 236.699 112.438C236.541 112.489 220.622 117.561 202.173 133.45C185.147 148.105 162.419 175.239 150.824 221.238C150.792 221.352 150.722 221.452 150.627 221.523C150.531 221.592 150.414 221.63 150.295 221.626Z" fill="#313131"/>
<path d="M142.827 135.977L132.198 158.317L119.327 152.195L123.634 143.145L122.208 138.402L126.96 128.425L142.827 135.977Z" fill="#17C653"/>
<path d="M132.197 158.85C132.118 158.85 132.039 158.833 131.967 158.799L119.096 152.677C118.969 152.616 118.871 152.506 118.824 152.373C118.777 152.239 118.784 152.093 118.844 151.964L123.062 143.102L121.7 138.556C121.661 138.429 121.67 138.292 121.726 138.171L126.477 128.195C126.506 128.131 126.548 128.074 126.601 128.027C126.653 127.98 126.714 127.944 126.78 127.922C126.913 127.875 127.059 127.883 127.186 127.943L143.058 135.495C143.121 135.525 143.178 135.567 143.225 135.619C143.272 135.671 143.308 135.732 143.331 135.798C143.356 135.867 143.367 135.94 143.364 136.014C143.36 136.087 143.342 136.159 143.31 136.225L132.68 158.547C132.636 158.638 132.567 158.714 132.482 158.768C132.397 158.822 132.298 158.85 132.197 158.85ZM120.039 151.943L131.946 157.608L142.114 136.229L127.211 129.134L122.78 138.445L124.146 142.991C124.181 143.117 124.171 143.252 124.116 143.371L120.039 151.943Z" fill="#313131"/>
<path d="M171.144 139.623C177.663 139.623 182.948 134.338 182.948 127.819C182.948 121.3 177.663 116.015 171.144 116.015C164.625 116.015 159.34 121.3 159.34 127.819C159.34 134.338 164.625 139.623 171.144 139.623Z" fill="white"/>
<path d="M171.157 140.152C169.082 140.155 167.039 139.634 165.219 138.637C163.398 137.641 161.859 136.202 160.742 134.452C159.626 132.703 158.969 130.7 158.832 128.63C158.695 126.559 159.082 124.487 159.958 122.606C160.834 120.725 162.171 119.095 163.844 117.867C165.518 116.64 167.473 115.854 169.531 115.583C171.588 115.312 173.681 115.565 175.615 116.317C177.549 117.069 179.262 118.297 180.595 119.887C182.105 121.685 183.071 123.876 183.377 126.204C183.685 128.531 183.322 130.898 182.331 133.026C181.339 135.155 179.762 136.956 177.782 138.218C175.803 139.48 173.504 140.151 171.157 140.152ZM171.135 116.549C168.572 116.553 166.086 117.431 164.089 119.038C162.092 120.646 160.702 122.886 160.151 125.39C159.599 127.893 159.917 130.51 161.054 132.808C162.19 135.106 164.076 136.948 166.4 138.03C168.725 139.111 171.349 139.367 173.839 138.756C176.328 138.144 178.536 136.702 180.095 134.668C181.654 132.633 182.473 130.127 182.416 127.564C182.357 125.001 181.428 122.534 179.78 120.57C178.721 119.309 177.398 118.295 175.904 117.6C174.41 116.905 172.783 116.547 171.135 116.549Z" fill="#313131"/>
<path d="M172.98 133.941L165.437 124.946L175.464 124.191L172.98 133.941Z" fill="#17C653"/>
<path d="M172.98 134.475C172.902 134.475 172.826 134.457 172.756 134.424C172.686 134.391 172.624 134.343 172.575 134.283L165.027 125.288C164.964 125.213 164.922 125.123 164.907 125.027C164.892 124.93 164.904 124.831 164.942 124.741C164.98 124.651 165.043 124.573 165.123 124.515C165.202 124.457 165.296 124.422 165.394 124.413L175.426 123.661C175.511 123.654 175.595 123.668 175.673 123.701C175.751 123.733 175.82 123.784 175.875 123.849C175.929 123.914 175.967 123.99 175.986 124.073C176.004 124.156 176.003 124.241 175.981 124.323L173.497 134.069C173.474 134.165 173.425 134.252 173.354 134.321C173.284 134.39 173.196 134.437 173.1 134.458C173.061 134.47 173.02 134.476 172.98 134.475ZM166.513 125.39L172.72 132.793L174.765 124.771L166.513 125.39Z" fill="#5A6CBB"/>
<path d="M156.039 181.875L148.364 201.54L161.746 206.765L169.421 187.099L156.039 181.875Z" fill="#17C653"/>
<path d="M161.753 207.311C161.687 207.311 161.622 207.301 161.561 207.277L148.177 202.053C148.112 202.026 148.052 201.989 148.002 201.941C147.951 201.891 147.91 201.834 147.882 201.77C147.854 201.706 147.839 201.637 147.837 201.565C147.836 201.496 147.849 201.427 147.874 201.361L155.558 181.693C155.612 181.563 155.712 181.458 155.84 181.4C155.908 181.371 155.98 181.355 156.053 181.355C156.127 181.355 156.199 181.371 156.267 181.4L169.65 186.624C169.782 186.677 169.887 186.779 169.943 186.909C170 187.037 170.004 187.185 169.953 187.316L162.269 206.984C162.231 207.083 162.163 207.171 162.075 207.231C161.986 207.29 161.881 207.322 161.774 207.32L161.753 207.311ZM149.061 201.254L161.441 206.087L168.728 187.418L156.348 182.582L149.061 201.254Z" fill="#17C653"/>
<path d="M148.369 202.091C148.252 202.089 148.138 202.048 148.046 201.977C147.954 201.904 147.888 201.802 147.858 201.688C147.829 201.574 147.837 201.455 147.882 201.347C147.928 201.238 148.007 201.147 148.109 201.088L159.704 194.65L155.541 182.057C155.514 181.989 155.501 181.916 155.503 181.843C155.505 181.77 155.522 181.699 155.553 181.633C155.584 181.567 155.628 181.508 155.682 181.459C155.737 181.411 155.801 181.375 155.87 181.352C155.939 181.329 156.012 181.32 156.085 181.327C156.158 181.334 156.228 181.355 156.292 181.389C156.356 181.425 156.412 181.473 156.457 181.53C156.502 181.587 156.535 181.653 156.553 181.724L160.856 194.732C160.894 194.85 160.89 194.978 160.845 195.093C160.8 195.209 160.717 195.305 160.609 195.367L148.63 202.023C148.55 202.066 148.461 202.089 148.369 202.091Z" fill="#313131"/>
<path d="M123.502 151.09C123.417 151.091 123.333 151.07 123.259 151.03C123.133 150.965 123.038 150.853 122.995 150.719C122.952 150.584 122.964 150.438 123.028 150.313L125.052 146.385C125.116 146.259 125.228 146.163 125.363 146.12C125.498 146.076 125.645 146.088 125.771 146.152C125.897 146.217 125.993 146.329 126.036 146.464C126.08 146.599 126.068 146.745 126.004 146.872L123.976 150.804C123.931 150.89 123.863 150.963 123.779 151.013C123.696 151.064 123.6 151.09 123.502 151.09Z" fill="#313131"/>
<path d="M125.761 152.156C125.676 152.155 125.593 152.135 125.517 152.097C125.455 152.064 125.399 152.02 125.353 151.967C125.308 151.913 125.273 151.851 125.252 151.784C125.23 151.717 125.223 151.646 125.228 151.576C125.235 151.506 125.254 151.438 125.287 151.375L127.31 147.448C127.34 147.381 127.382 147.321 127.436 147.272C127.489 147.222 127.552 147.184 127.62 147.16C127.689 147.135 127.762 147.126 127.834 147.13C127.907 147.135 127.978 147.155 128.042 147.188C128.107 147.221 128.164 147.267 128.211 147.324C128.257 147.38 128.291 147.445 128.311 147.515C128.332 147.585 128.337 147.658 128.328 147.73C128.319 147.802 128.295 147.872 128.258 147.934L126.235 151.857C126.191 151.946 126.124 152.021 126.04 152.074C125.956 152.127 125.86 152.155 125.761 152.156Z" fill="#313131"/>
<path d="M161.83 277.856C161.688 277.862 161.55 277.81 161.447 277.714C161.343 277.618 161.282 277.484 161.277 277.342C161.272 277.201 161.323 277.062 161.419 276.959C161.516 276.856 161.65 276.795 161.791 276.79C162.495 276.738 163.46 276.692 164.579 276.635C169.552 276.384 181.193 275.804 182.423 273.728C182.471 273.652 182.496 273.565 182.496 273.474C182.496 273.385 182.471 273.296 182.423 273.221C182.393 273.157 182.375 273.089 182.37 273.02C182.366 272.949 182.377 272.879 182.398 272.813C182.422 272.748 182.459 272.685 182.505 272.634C182.551 272.58 182.608 272.538 182.671 272.507C182.733 272.477 182.802 272.459 182.872 272.456C182.941 272.45 183.012 272.461 183.078 272.484C183.144 272.507 183.207 272.543 183.258 272.589C183.31 272.635 183.352 272.692 183.384 272.755C183.509 272.99 183.571 273.253 183.564 273.518C183.559 273.784 183.482 274.043 183.345 274.271C181.941 276.64 173.334 277.26 164.634 277.685C163.524 277.742 162.564 277.789 161.872 277.835L161.83 277.856Z" fill="#313131"/>
<path d="M154.077 272.974C153.977 272.974 153.879 272.945 153.794 272.89C153.709 272.837 153.642 272.76 153.599 272.669C153.569 272.607 153.551 272.538 153.547 272.468C153.543 272.397 153.553 272.328 153.577 272.262C153.6 272.194 153.636 272.134 153.684 272.082C153.731 272.03 153.787 271.988 153.851 271.957L157.228 270.37C157.356 270.309 157.503 270.302 157.636 270.352C157.77 270.4 157.878 270.499 157.938 270.628C157.998 270.756 158.005 270.904 157.956 271.035C157.908 271.169 157.809 271.277 157.68 271.338L154.308 272.926C154.235 272.959 154.156 272.975 154.077 272.974Z" fill="#313131"/>
<path d="M80.5271 274.805C80.3916 274.804 80.2615 274.752 80.1632 274.658C80.065 274.565 80.0057 274.439 79.9975 274.303C79.9895 274.168 80.0329 274.035 80.1195 273.931C80.2058 273.826 80.3286 273.759 80.463 273.741L84.9454 273.212C85.0168 273.2 85.0897 273.203 85.1601 273.219C85.2302 273.237 85.2962 273.269 85.3541 273.312C85.4119 273.355 85.4603 273.41 85.4963 273.472C85.5324 273.536 85.5554 273.606 85.5638 273.677C85.5721 273.748 85.5659 273.821 85.5452 273.89C85.5246 273.96 85.4902 274.024 85.444 274.079C85.3977 274.136 85.3405 274.181 85.2761 274.214C85.2119 274.246 85.1414 274.266 85.0693 274.271L80.5995 274.805H80.5271Z" fill="#313131"/>
<path d="M80.4965 252.333C80.3739 252.333 80.2552 252.29 80.1603 252.212C80.0654 252.133 80.0003 252.025 79.9757 251.906L76.8849 237.041C76.8645 236.97 76.8588 236.897 76.8682 236.824C76.8778 236.751 76.9022 236.68 76.9401 236.617C76.978 236.555 77.0284 236.5 77.0884 236.457C77.1482 236.414 77.2164 236.386 77.2883 236.37C77.3602 236.356 77.4344 236.356 77.5065 236.37C77.5784 236.386 77.6464 236.414 77.7064 236.457C77.7664 236.5 77.8168 236.555 77.8547 236.617C77.8926 236.68 77.917 236.751 77.9266 236.824L81.0259 251.688C81.0402 251.758 81.0403 251.829 81.0265 251.899C81.0126 251.968 80.985 252.034 80.9451 252.094C80.9054 252.153 80.8543 252.203 80.7949 252.242C80.7354 252.279 80.6688 252.306 80.5989 252.32C80.5654 252.328 80.5311 252.333 80.4965 252.333Z" fill="#313131"/>
<path d="M130.204 237.587C130.101 237.589 130 237.559 129.913 237.502C129.827 237.447 129.759 237.367 129.718 237.272L123.549 223.184C123.521 223.119 123.505 223.05 123.504 222.981C123.502 222.909 123.514 222.84 123.54 222.774C123.565 222.71 123.603 222.65 123.651 222.6C123.7 222.548 123.758 222.507 123.822 222.479C123.886 222.452 123.955 222.436 124.025 222.434C124.095 222.432 124.164 222.445 124.229 222.47C124.294 222.496 124.354 222.534 124.404 222.582C124.454 222.63 124.494 222.689 124.522 222.753L130.695 236.84C130.751 236.97 130.753 237.117 130.701 237.249C130.649 237.381 130.548 237.488 130.418 237.545C130.35 237.573 130.278 237.587 130.204 237.587Z" fill="#313131"/>
<path d="M77.4058 236.934L89.2479 273.447L85.0089 273.759L77.4058 236.934Z" fill="#313131"/>
<path d="M124.036 222.991L131.618 235.035L130.205 237.053L124.036 222.991Z" fill="#313131"/>
<path d="M322.65 150.799V179.944C322.65 184.424 320.87 188.723 317.702 191.891C314.533 195.059 310.234 196.839 305.754 196.839H262.21L237.667 210.77L248.609 196.839L248.682 196.772C244.478 196.398 240.565 194.463 237.715 191.348C234.867 188.233 233.287 184.164 233.289 179.944V150.799C233.289 146.318 235.069 142.021 238.239 138.853C241.407 135.684 245.704 133.904 250.184 133.903H305.758C310.238 133.905 314.535 135.686 317.702 138.854C320.87 142.023 322.65 146.319 322.65 150.799Z" fill="white"/>
<path d="M237.667 211.304C237.591 211.304 237.514 211.288 237.445 211.256C237.374 211.224 237.311 211.177 237.261 211.12C237.183 211.024 237.14 210.903 237.14 210.781C237.14 210.658 237.183 210.537 237.261 210.441L247.674 197.208C243.543 196.58 239.771 194.497 237.039 191.334C234.307 188.173 232.794 184.139 232.771 179.96V150.799C232.776 146.178 234.613 141.747 237.881 138.479C241.149 135.211 245.579 133.373 250.2 133.369H305.758C310.379 133.375 314.809 135.213 318.077 138.48C321.343 141.748 323.182 146.178 323.187 150.799V179.944C323.184 184.565 321.345 188.995 318.077 192.263C314.809 195.531 310.379 197.37 305.758 197.374H262.368L237.927 211.234C237.849 211.281 237.758 211.304 237.667 211.304ZM249.001 197.215L239.759 208.986L261.957 196.393C262.037 196.345 262.13 196.32 262.222 196.32H305.767C310.104 196.314 314.264 194.59 317.331 191.521C320.4 188.454 322.125 184.294 322.128 179.956V150.799C322.123 146.461 320.398 142.302 317.329 139.235C314.262 136.168 310.104 134.442 305.767 134.436H250.184C245.846 134.441 241.687 136.166 238.618 139.234C235.551 142.301 233.826 146.461 233.821 150.799V179.944C233.84 184.027 235.376 187.957 238.13 190.973C240.886 193.986 244.663 195.869 248.728 196.256C248.83 196.265 248.928 196.302 249.009 196.364C249.09 196.428 249.152 196.512 249.186 196.61C249.218 196.706 249.223 196.811 249.198 196.911C249.175 197.01 249.122 197.101 249.049 197.172L249.001 197.215Z" fill="#313131"/>
<path opacity="0.15" d="M314.583 144.925H241.357V152.421H314.583V144.925Z" fill="white"/>
<path opacity="0.15" d="M314.583 155.516H241.357V163.013H314.583V155.516Z" fill="white"/>
<path opacity="0.15" d="M314.583 166.103H241.357V173.599H314.583V166.103Z" fill="white"/>
<path opacity="0.15" d="M314.583 176.695H241.357V184.191H314.583V176.695Z" fill="white"/>
<path opacity="0.35" d="M314.583 144.925H241.357V152.421H314.583V144.925Z" fill="white"/>
<path d="M314.583 152.955H241.357C241.215 152.955 241.08 152.899 240.98 152.798C240.878 152.698 240.823 152.563 240.823 152.421V144.925C240.823 144.783 240.878 144.648 240.98 144.548C241.08 144.447 241.215 144.391 241.357 144.391H314.583C314.724 144.391 314.859 144.447 314.96 144.548C315.06 144.648 315.115 144.783 315.115 144.925V152.421C315.115 152.563 315.06 152.698 314.96 152.798C314.859 152.899 314.724 152.955 314.583 152.955ZM241.889 151.888H314.036V145.454H241.889V151.888Z" fill="#313131"/>
<path opacity="0.35" d="M314.583 155.516H241.357V163.013H314.583V155.516Z" fill="white"/>
<path d="M314.583 163.546H241.357C241.215 163.546 241.08 163.49 240.98 163.39C240.878 163.29 240.823 163.154 240.823 163.013V155.516C240.823 155.375 240.878 155.239 240.98 155.139C241.08 155.039 241.215 154.983 241.357 154.983H314.583C314.724 154.983 314.859 155.039 314.96 155.139C315.06 155.239 315.115 155.375 315.115 155.516V163.013C315.115 163.154 315.06 163.29 314.96 163.39C314.859 163.49 314.724 163.546 314.583 163.546ZM241.889 162.479H314.036V156.05H241.889V162.479Z" fill="#313131"/>
<path opacity="0.35" d="M314.583 166.103H241.357V173.599H314.583V166.103Z" fill="white"/>
<path d="M314.583 174.134H241.357C241.215 174.134 241.08 174.077 240.98 173.977C240.878 173.877 240.823 173.741 240.823 173.6V166.104C240.823 165.962 240.878 165.826 240.98 165.726C241.08 165.626 241.215 165.57 241.357 165.57H314.583C314.724 165.57 314.859 165.626 314.96 165.726C315.06 165.826 315.115 165.962 315.115 166.104V173.6C315.115 173.741 315.06 173.877 314.96 173.977C314.859 174.077 314.724 174.134 314.583 174.134ZM241.889 173.066H314.036V166.637H241.889V173.066Z" fill="#313131"/>
<path opacity="0.35" d="M314.583 176.695H241.357V184.191H314.583V176.695Z" fill="white"/>
<path d="M314.583 184.728H241.357C241.215 184.728 241.08 184.673 240.98 184.572C240.878 184.472 240.823 184.337 240.823 184.194V176.695C240.823 176.553 240.878 176.417 240.98 176.317C241.08 176.217 241.215 176.161 241.357 176.161H314.583C314.724 176.161 314.859 176.217 314.96 176.317C315.06 176.417 315.115 176.553 315.115 176.695V184.191C315.117 184.262 315.103 184.331 315.076 184.396C315.049 184.461 315.01 184.52 314.96 184.572C314.912 184.622 314.852 184.661 314.788 184.687C314.722 184.714 314.652 184.728 314.583 184.728ZM241.889 183.662H314.036V177.228H241.889V183.662Z" fill="#313131"/>
<path d="M283.816 144.925H241.357V152.421H283.816V144.925Z" fill="#17C653"/>
<path d="M283.803 152.955H241.357C241.215 152.955 241.08 152.899 240.98 152.798C240.878 152.698 240.823 152.563 240.823 152.421V144.925C240.823 144.783 240.878 144.648 240.98 144.548C241.08 144.447 241.215 144.391 241.357 144.391H283.803C283.944 144.391 284.081 144.447 284.18 144.548C284.28 144.648 284.337 144.783 284.337 144.925V152.421C284.337 152.563 284.28 152.698 284.18 152.798C284.081 152.899 283.944 152.955 283.803 152.955ZM241.873 151.888H283.282V145.454H241.873V151.888Z" fill="#313131"/>
<path d="M305.882 155.516H241.357V163.013H305.882V155.516Z" fill="#F3F5FF"/>
<path d="M305.882 163.546H241.357C241.215 163.546 241.08 163.49 240.98 163.39C240.878 163.29 240.823 163.154 240.823 163.013V155.516C240.823 155.375 240.878 155.239 240.98 155.139C241.08 155.039 241.215 154.983 241.357 154.983H305.882C306.023 154.983 306.16 155.039 306.26 155.139C306.359 155.239 306.416 155.375 306.416 155.516V163.013C306.416 163.154 306.359 163.29 306.26 163.39C306.16 163.49 306.023 163.546 305.882 163.546ZM241.889 162.479H305.348V156.05H241.889V162.479Z" fill="#313131"/>
<path d="M273.618 166.103H241.357V173.599H273.618V166.103Z" fill="#17C653"/>
<path d="M273.622 174.134H241.357C241.215 174.134 241.08 174.077 240.98 173.977C240.878 173.877 240.823 173.741 240.823 173.6V166.104C240.823 165.962 240.878 165.826 240.98 165.726C241.08 165.626 241.215 165.57 241.357 165.57H273.622C273.762 165.57 273.899 165.626 273.999 165.726C274.099 165.826 274.156 165.962 274.156 166.104V173.6C274.156 173.741 274.099 173.877 273.999 173.977C273.899 174.077 273.762 174.134 273.622 174.134ZM241.889 173.066H273.088V166.637H241.889V173.066Z" fill="#313131"/>
<path d="M295.172 176.695H241.357V184.191H295.172V176.695Z" fill="#F3F5FF"/>
<path d="M295.176 184.728H241.357C241.215 184.728 241.08 184.673 240.98 184.572C240.878 184.472 240.823 184.337 240.823 184.194V176.695C240.823 176.553 240.878 176.417 240.98 176.317C241.08 176.217 241.215 176.161 241.357 176.161H295.176C295.316 176.161 295.453 176.217 295.553 176.317C295.653 176.417 295.71 176.553 295.71 176.695V184.191C295.71 184.262 295.697 184.331 295.67 184.396C295.644 184.461 295.605 184.52 295.555 184.572C295.505 184.622 295.446 184.661 295.38 184.687C295.316 184.714 295.247 184.728 295.176 184.728ZM241.889 183.662H294.642V177.228H241.889V183.662Z" fill="#313131"/>
</svg>
