<svg width="125" height="37" viewBox="0 0 125 37" fill="none" xmlns="http://www.w3.org/2000/svg">
<path d="M59.9688 9.68359H63.9062L72.7656 28H68.8633L67.3984 24.918H56.6992L55.2812 28H51.3672L59.9688 9.68359ZM65.9336 21.8594L61.9727 13.5391L58.1172 21.8594H65.9336ZM75.1445 9.68359H78.8828V28H75.1445V9.68359ZM83.6289 9.68359H90.3438C92.3047 9.68359 94.0078 9.89453 95.4531 10.3164C96.8984 10.7383 98.0938 11.3438 99.0391 12.1328C99.9922 12.9141 100.699 13.8672 101.16 14.9922C101.629 16.1094 101.863 17.3672 101.863 18.7656C101.863 20.0938 101.633 21.3242 101.172 22.457C100.711 23.582 100.008 24.5586 99.0625 25.3867C98.1172 26.207 96.9219 26.8516 95.4766 27.3203C94.0312 27.7812 92.3281 28.0117 90.3672 28.0117L83.6289 28V9.68359ZM91.2578 24.7891C92.3672 24.7891 93.3398 24.6484 94.1758 24.3672C95.0117 24.0781 95.707 23.6719 96.2617 23.1484C96.8242 22.625 97.2461 21.9922 97.5273 21.25C97.8086 20.5078 97.9492 19.6797 97.9492 18.7656C97.9492 17.8672 97.8086 17.0586 97.5273 16.3398C97.2461 15.6133 96.8242 15 96.2617 14.5C95.707 13.9922 95.0117 13.6016 94.1758 13.3281C93.3398 13.0547 92.3672 12.918 91.2578 12.918H87.3438V24.7891H91.2578ZM111.836 9.68359H115.773L124.633 28H120.73L119.266 24.918H108.566L107.148 28H103.234L111.836 9.68359ZM117.801 21.8594L113.84 13.5391L109.984 21.8594H117.801Z" fill="white"/>
<circle cx="18.5" cy="18.5" r="18.5" fill="white"/>
<path d="M30.1712 6.83671C27.4727 4.13636 23.9213 2.45528 20.1222 2.07996C16.3231 1.70464 12.5114 2.65829 9.33664 4.7784C6.16188 6.89852 3.82052 10.0539 2.71153 13.7069C1.60255 17.3598 1.79457 21.2843 3.25487 24.8116C4.71517 28.3388 7.35339 31.2505 10.72 33.0506C14.0865 34.8507 17.9731 35.4277 21.7174 34.6832C25.4617 33.9388 28.8321 31.9191 31.2541 28.9682C33.6761 26.0173 34.9999 22.3179 35 18.5003C34.9997 14.1261 33.2629 9.93099 30.1712 6.83671ZM13.0163 29.4921C13.0163 29.0062 13.2093 28.5403 13.5529 28.1967C13.8964 27.8532 14.3624 27.6601 14.8483 27.6601C15.3341 27.6601 15.8001 27.8532 16.1437 28.1967C16.4872 28.5403 16.6802 29.0062 16.6802 29.4921V31.1882C15.4106 31.0065 14.1754 30.635 13.0163 30.086V29.4921ZM20.3442 29.4921C20.3442 29.0062 20.5372 28.5403 20.8808 28.1967C21.2243 27.8532 21.6903 27.6601 22.1762 27.6601C22.662 27.6601 23.128 27.8532 23.4716 28.1967C23.8151 28.5403 24.0081 29.0062 24.0081 29.4921V30.086C22.849 30.635 21.6139 31.0065 20.3442 31.1882V29.4921ZM15.175 21.5536H21.8495L23.0051 24.0603C22.2035 23.9384 21.3848 23.9957 20.608 24.228C19.8311 24.4603 19.1154 24.8618 18.5122 25.4038C17.9089 24.8621 17.1931 24.4608 16.4163 24.2288C15.6394 23.9968 14.8208 23.9398 14.0193 24.0618L15.175 21.5536ZM16.8665 17.8896L18.5122 14.3203L20.1579 17.8896H16.8665ZM27.6721 27.4754V25.8282C27.671 25.5647 27.6137 25.3045 27.5042 25.0648L20.1763 9.18774C20.0298 8.86962 19.7952 8.60015 19.5003 8.41127C19.2053 8.22238 18.8624 8.12199 18.5122 8.12199C18.162 8.12199 17.8191 8.22238 17.5242 8.41127C17.2293 8.60015 16.9946 8.86962 16.8482 9.18774L9.52027 25.0648C9.41071 25.3045 9.35346 25.5647 9.35233 25.8282V27.4724C7.58508 25.6687 6.38968 23.3834 5.91601 20.903C5.44234 18.4227 5.7115 15.8577 6.68973 13.5297C7.66796 11.2017 9.31173 9.21436 11.4149 7.81681C13.5181 6.41927 15.987 5.67375 18.5122 5.67375C21.0374 5.67375 23.5064 6.41927 25.6095 7.81681C27.7127 9.21436 29.3565 11.2017 30.3347 13.5297C31.3129 15.8577 31.5821 18.4227 31.1084 20.903C30.6348 23.3834 29.4393 25.6687 27.6721 27.4724V27.4754Z" fill="#17C653"/>
</svg>
