<svg width="287" height="81" viewBox="0 0 287 81" fill="none" xmlns="http://www.w3.org/2000/svg">
<path d="M119.086 15.6826H129.258L152.145 63H142.063L138.279 55.0381H110.64L106.977 63H96.8652L119.086 15.6826ZM134.495 47.1367L124.263 25.6426L114.303 47.1367H134.495ZM158.29 15.6826H167.947V63H158.29V15.6826ZM180.208 15.6826H197.555C202.62 15.6826 207.02 16.2275 210.754 17.3174C214.488 18.4072 217.576 19.9714 220.018 22.0098C222.48 24.028 224.306 26.4902 225.497 29.3965C226.708 32.2826 227.313 35.5319 227.313 39.1445C227.313 42.5755 226.718 45.7542 225.527 48.6807C224.337 51.5869 222.52 54.1097 220.078 56.249C217.636 58.3682 214.548 60.0332 210.814 61.2441C207.081 62.4349 202.681 63.0303 197.615 63.0303L180.208 63V15.6826ZM199.916 54.7051C202.782 54.7051 205.295 54.3418 207.454 53.6152C209.614 52.8685 211.41 51.819 212.843 50.4668C214.296 49.1146 215.386 47.4798 216.112 45.5625C216.839 43.6452 217.202 41.5059 217.202 39.1445C217.202 36.8236 216.839 34.7347 216.112 32.8779C215.386 31.001 214.296 29.4167 212.843 28.125C211.41 26.8132 209.614 25.804 207.454 25.0977C205.295 24.3913 202.782 24.0381 199.916 24.0381H189.805V54.7051H199.916ZM253.076 15.6826H263.248L286.135 63H276.054L272.27 55.0381H244.63L240.967 63H230.855L253.076 15.6826ZM268.485 47.1367L258.253 25.6426L248.293 47.1367H268.485Z" fill="#17C653"/>
<circle cx="40.5" cy="40.5" r="40.5" fill="white"/>
<path d="M66.0505 14.9668C60.1429 9.05525 52.3682 5.37506 44.0513 4.55341C35.7343 3.73175 27.3898 5.81948 20.4396 10.4608C13.4895 15.1021 8.36382 22.0099 5.93604 30.0069C3.50826 38.0039 3.92863 46.5954 7.1255 54.3172C10.3224 62.039 16.0979 68.4133 23.468 72.354C30.838 76.2947 39.3465 77.5578 47.5435 75.9282C55.7405 74.2985 63.1188 69.8769 68.4211 63.4168C73.7233 56.9568 76.6215 48.858 76.6216 40.5006C76.621 30.9247 72.8188 21.7408 66.0505 14.9668ZM28.4951 64.5638C28.4951 63.5001 28.9176 62.48 29.6698 61.7279C30.4219 60.9758 31.442 60.5533 32.5056 60.5533C33.5693 60.5533 34.5894 60.9758 35.3415 61.7279C36.0936 62.48 36.5162 63.5001 36.5162 64.5638V68.2769C33.7366 67.8792 31.0327 67.0657 28.4951 65.8639V64.5638ZM44.5373 64.5638C44.5373 63.5001 44.9598 62.48 45.7119 61.7279C46.464 60.9758 47.4841 60.5533 48.5478 60.5533C49.6115 60.5533 50.6316 60.9758 51.3837 61.7279C52.1358 62.48 52.5583 63.5001 52.5583 64.5638V65.8639C50.0207 67.0657 47.3168 67.8792 44.5373 68.2769V64.5638ZM33.2208 47.1848H47.8326L50.3626 52.6726C48.6076 52.4058 46.8154 52.5311 45.1147 53.0397C43.414 53.5482 41.8471 54.4273 40.5267 55.6136C39.206 54.4278 37.639 53.5494 35.9383 53.0415C34.2376 52.5335 32.4455 52.4087 30.6909 52.6759L33.2208 47.1848ZM36.9239 39.1637L40.5267 31.3499L44.1295 39.1637H36.9239ZM60.5794 60.1489V56.5427C60.577 55.9659 60.4516 55.3963 60.2118 54.8717L44.1696 20.1137C43.8489 19.4173 43.3354 18.8273 42.6897 18.4138C42.0441 18.0003 41.2934 17.7805 40.5267 17.7805C39.76 17.7805 39.0094 18.0003 38.3637 18.4138C37.7181 18.8273 37.2045 19.4173 36.8838 20.1137L20.8416 54.8717C20.6018 55.3963 20.4765 55.9659 20.474 56.5427V60.1422C16.6052 56.1936 13.9882 51.1906 12.9512 45.7607C11.9143 40.3307 12.5035 34.7155 14.6451 29.6191C16.7866 24.5227 20.3851 20.172 24.9894 17.1125C29.5936 14.053 34.9986 12.4209 40.5267 12.4209C46.0548 12.4209 51.4598 14.053 56.0641 17.1125C60.6683 20.172 64.2668 24.5227 66.4084 29.6191C68.5499 34.7155 69.1391 40.3307 68.1022 45.7607C67.0652 51.1906 64.4483 56.1936 60.5794 60.1422V60.1489Z" fill="#17C653"/>
</svg>
